<svg xmlns="http://www.w3.org/2000/svg" width="42" height="42" viewBox="0 0 42 42"><g transform="translate(0 -0.074)"><path d="M20.9,11.063a35.585,35.585,0,0,1,4.642.129,5.981,5.981,0,0,1,2.192.387,4.529,4.529,0,0,1,2.192,2.192,5.981,5.981,0,0,1,.387,2.192c0,1.161.129,1.547.129,4.642a35.584,35.584,0,0,1-.129,4.642,5.981,5.981,0,0,1-.387,2.192,4.529,4.529,0,0,1-2.192,2.192,5.981,5.981,0,0,1-2.192.387c-1.161,0-1.547.129-4.642.129a35.585,35.585,0,0,1-4.642-.129,5.981,5.981,0,0,1-2.192-.387,4.529,4.529,0,0,1-2.193-2.191,5.981,5.981,0,0,1-.387-2.192c0-1.161-.129-1.547-.129-4.642a35.585,35.585,0,0,1,.129-4.642,5.981,5.981,0,0,1,.387-2.192,4.631,4.631,0,0,1,.9-1.29,2.18,2.18,0,0,1,1.29-.9,5.981,5.981,0,0,1,2.192-.387,35.586,35.586,0,0,1,4.642-.129m0-2.063a38.1,38.1,0,0,0-4.769.126,7.961,7.961,0,0,0-2.834.516A5.422,5.422,0,0,0,9.934,13a5.875,5.875,0,0,0-.516,2.834,38.1,38.1,0,0,0-.129,4.772,38.1,38.1,0,0,0,.129,4.771,7.961,7.961,0,0,0,.516,2.837,5.412,5.412,0,0,0,3.355,3.353,7.961,7.961,0,0,0,2.837.516,38.1,38.1,0,0,0,4.771.129,38.1,38.1,0,0,0,4.771-.129,7.961,7.961,0,0,0,2.837-.516,5.41,5.41,0,0,0,3.353-3.353,7.961,7.961,0,0,0,.516-2.837c0-1.29.129-1.676.129-4.771a38.1,38.1,0,0,0-.129-4.771A7.961,7.961,0,0,0,31.856,13,5.425,5.425,0,0,0,28.5,9.645a7.961,7.961,0,0,0-2.837-.516A38.1,38.1,0,0,0,20.9,9m0,5.674a5.836,5.836,0,0,0-5.932,5.932A5.932,5.932,0,1,0,20.9,14.674m0,9.8a3.8,3.8,0,1,1,2.757-1.112A3.8,3.8,0,0,1,20.9,24.474M27.089,13a1.418,1.418,0,1,0,1.418,1.418A1.418,1.418,0,0,0,27.089,13" transform="translate(0 -0.797)" fill="#7b583f" fill-rule="evenodd"/><g transform="translate(0 0.074)" fill="none" stroke="#7b583f" stroke-width="2"><circle cx="21" cy="21" r="21" stroke="none"/><circle cx="21" cy="21" r="20" fill="none"/></g></g></svg>