<svg xmlns="http://www.w3.org/2000/svg" width="30.62" height="30.62" viewBox="0 0 30.62 30.62"><g transform="translate(30.62) rotate(90)"><path d="M15.31,0A15.31,15.31,0,0,1,26.136,26.136,15.31,15.31,0,0,1,4.484,4.484,15.21,15.21,0,0,1,15.31,0Zm0,28A12.69,12.69,0,1,0,2.62,15.31,12.7,12.7,0,0,0,15.31,28Z" fill="#fff"/><g transform="translate(11.743 8.472)"><path d="M1.31,13.676A1.31,1.31,0,0,1,.384,11.44l4.6-4.6-4.6-4.6A1.31,1.31,0,1,1,2.236.384L7.764,5.912a1.31,1.31,0,0,1,0,1.853L2.236,13.292A1.306,1.306,0,0,1,1.31,13.676Z" fill="#fff"/></g></g></svg>