<svg xmlns="http://www.w3.org/2000/svg" width="35" height="35" viewBox="0 0 35 35"><g transform="translate(-306 -1702)"><circle cx="17.5" cy="17.5" r="17.5" transform="translate(306 1702)" fill="#fff"/><g transform="translate(30.363 -13.723)"><path d="M655.152,623.124a3.773,3.773,0,0,0-3.511,2.4l-3.745-1.946a4.07,4.07,0,0,0-.24-3.708l3.891-2.533a3.369,3.369,0,1,0-.2-.391.194.194,0,0,0-.029.012l-3.907,2.543a4.087,4.087,0,1,0,.288,4.473l3.75,1.948a.21.21,0,0,0,.06.02,3.773,3.773,0,1,0,3.647-2.814Zm-.629-10.538a2.988,2.988,0,1,1-2.988,2.988A2.988,2.988,0,0,1,654.523,612.586Zm-10.381,12.982a3.618,3.618,0,1,1,3.618-3.617A3.618,3.618,0,0,1,644.142,625.568Zm11.01,4.634a3.3,3.3,0,1,1,3.3-3.3A3.3,3.3,0,0,1,655.152,630.2Z" transform="translate(-356.523 1111.779)" fill="#676767"/><path d="M655.045,630.959a4.172,4.172,0,0,1-4.168-4.168,4.077,4.077,0,0,1,.069-.742l-3.218-1.672a4.481,4.481,0,1,1-3.694-7.017,4.438,4.438,0,0,1,3.347,1.507l3.374-2.2a3.853,3.853,0,1,1,3.66,2.648,3.87,3.87,0,0,1-3.087-1.554l-3.263,2.124a4.46,4.46,0,0,1,.216,3.389l3.067,1.594a4.167,4.167,0,1,1,3.7,6.087Zm0-7.078a2.91,2.91,0,1,0,2.91,2.91A2.913,2.913,0,0,0,655.045,623.881Zm-11.01-5.263a3.225,3.225,0,1,0,3.225,3.225A3.228,3.228,0,0,0,644.035,618.618Zm10.381-5.747a2.6,2.6,0,1,0,2.6,2.6A2.6,2.6,0,0,0,654.416,612.872Z" transform="translate(-356.416 1111.886)" fill="#676767"/></g></g></svg>