<svg xmlns="http://www.w3.org/2000/svg" width="999.196" height="636.285" fill="#fff" xmlns:v="https://vecta.io/nano"><path d="M749.626 233.941a87.53 87.53 0 0 1-2.674 32.485 85.14 85.14 0 0 1-13.979 28.484c-6.037 8.173-13.736 14.975-22.59 19.961a63.86 63.86 0 0 1-27.451 7.91 69.34 69.34 0 0 1-14-.64 72.81 72.81 0 0 1-22.414-7.269c-25.072-11.113-44.986-39.324-44.986-39.324-11.575-15.189-32.527-27.293-58.777-32.925h-7.514v-2.328h.92c3.135-.039 13.792-.5 23.8-4.766a70.99 70.99 0 0 0 5.45-2.784 28.81 28.81 0 0 0 12.752-15.324c.122-.508.254-1.009.35-1.539a60.48 60.48 0 0 0 1.119-11.856c0-.792-.026-1.569-.053-2.345-3.059-27.688-21.068-32.976-35.238-33.656q-1 .025-2.963.1-3.135.116-6.824.112-1.762 0-3.4.026l-1.434.029-1.991.057q-3.135.114-3.579.111c-1.343 0-2.2.337-2.573 1.007-.181.323-.321.668-.417 1.026v74.455l.081 20.936v53.579c-.002.189-.029.378-.081.56v2.494h-14.003V165.695h14.012v.077h26.032a67.29 67.29 0 0 1 7.829.447q4.7.671 9.4 1.566a49.97 49.97 0 0 1 9.172 2.685 35.8 35.8 0 0 1 10.514 6.264 31.16 31.16 0 0 1 7.606 9.843 34.68 34.68 0 0 1 3.02 12.3c.229 4.125-.302 8.258-1.566 12.191-1.28 3.979-3.206 7.72-5.7 11.074a33.23 33.23 0 0 1-6.966 6.974l-.109.1c-8.337 7.439-21.05 10.841-24.808 11.72 10.566.419 32.159.214 50.14 26.561a79.66 79.66 0 0 1-1.437-47.28 73 73 0 0 1 14.5-27.48 74.54 74.54 0 0 1 10.7-10.283 77.3 77.3 0 0 1 12.041-7.705c8.168-4.226 17.013-6.987 26.134-8.159 9.051-1.162 18.238-.669 27.112 1.457a69.21 69.21 0 0 1 45.541 35.1c5.028 9.581 8.185 20.032 9.302 30.794zm-12.973 1.608a81.19 81.19 0 0 0-6.709-26.022 82.86 82.86 0 0 0-14.5-22.444 61.93 61.93 0 0 0-21.582-15.5 51.74 51.74 0 0 0-26.056-3.633 53.05 53.05 0 0 0-24.778 9.827 67.55 67.55 0 0 0-18.152 20.4c-4.637 7.919-8.068 16.484-10.179 25.415a95.11 95.11 0 0 0-2.462 27.375 84.78 84.78 0 0 0 5.9 27.219 64.92 64.92 0 0 0 15.43 22.892 56.93 56.93 0 0 0 23.005 13.242 54.26 54.26 0 0 0 25.644 1.038c16.858-3.405 31.784-13.95 41.763-28.5a75.36 75.36 0 0 0 10.7-24.411 83.48 83.48 0 0 0 1.976-26.898zM507.635 88.956a87.53 87.53 0 0 1 2.674-32.485 85.14 85.14 0 0 1 13.979-28.484c6.038-8.173 13.736-14.975 22.59-19.961a63.85 63.85 0 0 1 27.451-7.91c4.675-.26 9.364-.045 13.995.64a72.81 72.81 0 0 1 22.414 7.269c25.071 11.113 44.985 39.324 44.985 39.324 11.575 15.189 32.527 27.293 58.777 32.924h7.514v2.329h-.92c-3.135.039-13.792.5-23.8 4.765q-2.763 1.267-5.449 2.785a28.81 28.81 0 0 0-12.753 15.324c-.122.508-.254 1.009-.35 1.538a60.49 60.49 0 0 0-1.119 11.857c0 .792.027 1.569.054 2.345 3.058 27.688 21.067 32.976 35.237 33.656q1-.026 2.963-.1 3.135-.116 6.824-.112 1.763 0 3.4-.026c.516-.018 1-.029 1.434-.029l1.991-.057 3.579-.111c1.343 0 2.2-.337 2.573-1.007.181-.323.321-.668.417-1.026V77.949l-.081-20.936V3.434a2.12 2.12 0 0 1 .081-.561V.38h14.012v156.818h-14.011v-.078H710.06a67.3 67.3 0 0 1-7.829-.446q-4.7-.672-9.4-1.566a49.96 49.96 0 0 1-9.172-2.685 35.78 35.78 0 0 1-10.514-6.264 31.16 31.16 0 0 1-7.606-9.843 34.68 34.68 0 0 1-3.02-12.3 33.73 33.73 0 0 1 1.566-12.192c1.281-3.978 3.206-7.719 5.7-11.073 1.962-2.658 4.31-5.009 6.966-6.974.038-.034.071-.068.109-.1 8.337-7.44 21.05-10.841 24.808-11.72-10.566-.419-32.159-.214-50.14-26.561 5.253 15.253 5.751 31.741 1.428 47.283a73 73 0 0 1-14.5 27.48 74.53 74.53 0 0 1-10.7 10.282 77.29 77.29 0 0 1-12.042 7.706c-8.168 4.226-17.013 6.987-26.134 8.159-9.051 1.162-18.238.669-27.112-1.457a69.2 69.2 0 0 1-45.54-35.1c-5.026-9.581-8.18-20.032-9.293-30.793zm12.973-1.608a81.19 81.19 0 0 0 6.709 26.022c3.587 8.217 8.484 15.796 14.5 22.444a61.93 61.93 0 0 0 21.582 15.5 51.74 51.74 0 0 0 26.056 3.633c8.962-1.113 17.491-4.496 24.779-9.828 7.376-5.493 13.553-12.435 18.151-20.4 4.637-7.919 8.068-16.484 10.179-25.415a95.12 95.12 0 0 0 2.462-27.375 84.78 84.78 0 0 0-5.9-27.219 64.91 64.91 0 0 0-15.422-22.893 56.92 56.92 0 0 0-23.005-13.242 54.26 54.26 0 0 0-25.644-1.038c-16.858 3.405-31.784 13.95-41.763 28.5a75.36 75.36 0 0 0-10.7 24.411 83.49 83.49 0 0 0-1.984 26.9zm245.423 429.189a69.2 69.2 0 0 1 45.54-35.1 75.25 75.25 0 0 1 27.113-1.457 78.7 78.7 0 0 1 26.133 8.159 77.29 77.29 0 0 1 12.042 7.706 74.48 74.48 0 0 1 10.7 10.282 73 73 0 0 1 14.5 27.48c4.323 15.542 3.825 32.03-1.428 47.283 17.981-26.347 39.574-26.142 50.14-26.561-3.758-.879-16.47-4.28-24.808-11.72-.038-.033-.071-.067-.109-.1-2.656-1.966-5.003-4.316-6.966-6.974a38.18 38.18 0 0 1-5.7-11.073 33.73 33.73 0 0 1-1.566-12.192 34.67 34.67 0 0 1 3.02-12.3 31.15 31.15 0 0 1 7.607-9.843 35.76 35.76 0 0 1 10.514-6.264c2.964-1.186 6.035-2.085 9.171-2.685q4.7-.891 9.4-1.566a67.25 67.25 0 0 1 7.829-.446h26.016v-.078h14.012v156.818h-14.012v-2.493a2.12 2.12 0 0 1-.081-.561v-53.579l.081-20.936v-74.455a4.42 4.42 0 0 0-.417-1.026c-.37-.67-1.23-1.006-2.573-1.006-.3 0-1.488-.035-3.578-.112l-1.992-.057c-.437 0-.918-.011-1.434-.029l-3.4-.026q-3.691 0-6.824-.112-1.966-.069-2.963-.1c-14.169.68-32.178 5.968-35.237 33.656l-.053 2.345a60.5 60.5 0 0 0 1.118 11.857c.1.529.228 1.03.35 1.538a28.81 28.81 0 0 0 12.753 15.324q2.684 1.524 5.449 2.785c10.008 4.263 20.665 4.726 23.8 4.765h.92v2.329h-7.513c-26.251 5.631-47.2 17.735-58.778 32.924 0 0-19.913 28.211-44.985 39.339a73.19 73.19 0 0 1-22.414 7.254 69.33 69.33 0 0 1-13.994.64 63.85 63.85 0 0 1-27.452-7.91 72 72 0 0 1-22.589-19.961 85.12 85.12 0 0 1-13.972-28.482 87.51 87.51 0 0 1-2.673-32.485 85.14 85.14 0 0 1 9.303-30.795zm5.655 59.294a75.35 75.35 0 0 0 10.7 24.411c9.98 14.554 24.9 25.1 41.763 28.5a54.26 54.26 0 0 0 25.644-1.038c8.603-2.54 16.484-7.077 23-13.242 6.726-6.436 11.988-14.243 15.43-22.892a84.78 84.78 0 0 0 5.9-27.219 95.12 95.12 0 0 0-2.462-27.375 92.31 92.31 0 0 0-10.179-25.415c-4.598-7.965-10.775-14.907-18.151-20.4-7.288-5.332-15.817-8.715-24.779-9.828a51.73 51.73 0 0 0-26.055 3.633 61.92 61.92 0 0 0-21.582 15.5 82.83 82.83 0 0 0-14.5 22.444 81.16 81.16 0 0 0-6.71 26.022c-.802 9.014-.133 18.099 1.981 26.899zm217.728-142.693a69.21 69.21 0 0 1-45.541 35.1 75.24 75.24 0 0 1-27.112 1.457 78.7 78.7 0 0 1-26.134-8.159 77.3 77.3 0 0 1-12.041-7.705 74.54 74.54 0 0 1-10.7-10.283 73.02 73.02 0 0 1-14.5-27.48 79.64 79.64 0 0 1 1.429-47.283c-17.982 26.347-39.575 26.142-50.14 26.561 3.757.879 16.47 4.281 24.807 11.72l.109.1c2.656 1.965 5.004 4.316 6.966 6.974a38.15 38.15 0 0 1 5.7 11.074c1.264 3.933 1.795 8.066 1.566 12.191a34.65 34.65 0 0 1-3.02 12.3c-1.848 3.759-4.435 7.107-7.606 9.843a35.77 35.77 0 0 1-10.508 6.268 49.93 49.93 0 0 1-9.172 2.685q-4.7.891-9.4 1.566a67.26 67.26 0 0 1-7.829.447H770.26v.077h-14.012V313.772h14.012v2.494c.052.182.079.371.081.56v53.579l-.081 20.936v74.455a4.44 4.44 0 0 0 .417 1.026c.37.671 1.231 1.007 2.573 1.007q.445 0 3.579.111l1.991.057c.437 0 .919.011 1.434.029q1.637.026 3.4.026 3.691 0 6.823.112 1.968.069 2.963.1c14.17-.679 32.179-5.968 35.238-33.656l.053-2.345a60.4 60.4 0 0 0-1.119-11.856c-.1-.53-.227-1.031-.35-1.539-2.291-6.463-6.813-11.897-12.752-15.324a70.99 70.99 0 0 0-5.45-2.784c-10.008-4.263-20.665-4.727-23.8-4.766h-.921v-2.328h7.514c26.25-5.632 47.2-17.736 58.777-32.925 0 0 19.914-28.211 44.986-39.339a73.24 73.24 0 0 1 22.414-7.254c4.631-.685 9.32-.9 13.995-.64a63.87 63.87 0 0 1 27.452 7.91 72 72 0 0 1 22.589 19.961 85.12 85.12 0 0 1 13.98 28.484 87.51 87.51 0 0 1 2.673 32.485c-1.118 10.761-4.276 21.211-9.305 30.79zm-5.655-59.295a75.36 75.36 0 0 0-10.7-24.411c-9.979-14.554-24.9-25.1-41.763-28.5a54.26 54.26 0 0 0-25.644 1.038c-8.603 2.54-16.484 7.078-23 13.242a64.92 64.92 0 0 0-15.43 22.892 84.78 84.78 0 0 0-5.9 27.219 95.18 95.18 0 0 0 2.462 27.375c2.111 8.931 5.542 17.496 10.18 25.415a67.55 67.55 0 0 0 18.151 20.4c7.289 5.331 15.818 8.713 24.779 9.827 8.853 1.054 17.828-.197 26.055-3.633a61.93 61.93 0 0 0 21.582-15.5c6.016-6.648 10.913-14.227 14.5-22.444a81.19 81.19 0 0 0 6.709-26.022c.802-9.014.133-18.099-1.981-26.898zM747.32 547.33a87.53 87.53 0 0 1-2.673 32.487 85.12 85.12 0 0 1-13.98 28.484 72.01 72.01 0 0 1-22.589 19.961 63.86 63.86 0 0 1-27.452 7.91c-4.675.26-9.364.045-13.995-.64a72.81 72.81 0 0 1-22.414-7.269c-25.072-11.113-44.986-39.324-44.986-39.324-11.575-15.189-32.527-27.293-58.777-32.924h-7.514v-2.329h.921c3.134-.039 13.791-.5 23.8-4.765q2.763-1.267 5.45-2.785c5.939-3.427 10.461-8.861 12.752-15.324.123-.508.254-1.009.35-1.538.763-3.906 1.137-7.877 1.119-11.857 0-.792-.026-1.569-.053-2.345-3.059-27.688-21.068-32.976-35.238-33.656q-1 .026-2.963.1-3.135.115-6.823.112-1.764 0-3.4.026l-1.434.029-1.991.057-3.579.112c-1.342 0-2.2.336-2.573 1.006a4.46 4.46 0 0 0-.417 1.026v74.455l.081 20.936v53.579a2.13 2.13 0 0 1-.081.561v2.493h-14.01V479.084h14.012v.078h26.032a67.16 67.16 0 0 1 7.829.446q4.7.672 9.4 1.566c3.136.6 6.208 1.499 9.172 2.685a35.77 35.77 0 0 1 10.514 6.264c3.171 2.736 5.758 6.084 7.606 9.843 1.754 3.88 2.778 8.049 3.02 12.3a33.73 33.73 0 0 1-1.566 12.192c-1.281 3.978-3.206 7.719-5.7 11.073a33.21 33.21 0 0 1-6.966 6.974c-.037.034-.071.068-.109.1-8.337 7.44-21.05 10.841-24.807 11.72 10.565.419 32.158.214 50.139 26.561-5.253-15.253-5.751-31.741-1.428-47.283a73.02 73.02 0 0 1 14.5-27.48 74.53 74.53 0 0 1 10.7-10.282c3.767-2.935 7.798-5.515 12.041-7.706a78.7 78.7 0 0 1 26.134-8.159 75.24 75.24 0 0 1 27.112 1.457 69.2 69.2 0 0 1 45.541 35.1 85.16 85.16 0 0 1 9.293 30.797zm-12.973 1.608a81.18 81.18 0 0 0-6.709-26.022c-3.587-8.217-8.484-15.796-14.5-22.444a61.93 61.93 0 0 0-21.582-15.5c-8.227-3.436-17.202-4.687-26.055-3.633-8.962 1.113-17.491 4.496-24.779 9.828-7.376 5.493-13.553 12.435-18.151 20.4a92.31 92.31 0 0 0-10.18 25.415 95.15 95.15 0 0 0-2.462 27.375 84.78 84.78 0 0 0 5.9 27.219c3.442 8.649 8.705 16.456 15.43 22.892a56.92 56.92 0 0 0 23.005 13.242 54.26 54.26 0 0 0 25.644 1.038c16.858-3.405 31.784-13.95 41.763-28.5a75.35 75.35 0 0 0 10.7-24.411c2.112-8.8 2.78-17.885 1.976-26.899zM505.331 402.344a87.51 87.51 0 0 1 2.673-32.485 85.12 85.12 0 0 1 13.98-28.484 72 72 0 0 1 22.589-19.961 63.86 63.86 0 0 1 27.452-7.91 69.35 69.35 0 0 1 13.994.64 72.81 72.81 0 0 1 22.414 7.269c25.072 11.113 44.985 39.324 44.985 39.324 11.576 15.189 32.527 27.293 58.777 32.925h7.514v2.328h-.92c-3.135.039-13.792.5-23.8 4.766a70.79 70.79 0 0 0-5.449 2.784 28.81 28.81 0 0 0-12.753 15.324c-.122.508-.253 1.009-.35 1.539a60.48 60.48 0 0 0-1.118 11.856c0 .792.026 1.569.053 2.345 3.059 27.688 21.068 32.977 35.237 33.656q1-.026 2.963-.1 3.135-.115 6.824-.112l3.4-.026c.516-.018 1-.029 1.434-.029l1.992-.057q3.135-.114 3.578-.111c1.343 0 2.2-.336 2.573-1.007a4.4 4.4 0 0 0 .417-1.026v-74.455l-.081-20.936v-53.575c.002-.189.029-.378.081-.56v-2.494h14.012V470.59h-14.017v-.077h-26.029a67.25 67.25 0 0 1-7.829-.447q-4.7-.671-9.4-1.566c-3.136-.6-6.207-1.499-9.171-2.685a35.76 35.76 0 0 1-10.514-6.264 31.15 31.15 0 0 1-7.607-9.843 34.67 34.67 0 0 1-3.02-12.3 33.72 33.72 0 0 1 1.57-12.192c1.281-3.978 3.207-7.72 5.7-11.074 1.963-2.658 4.31-5.008 6.966-6.974l.109-.1c8.338-7.439 21.05-10.841 24.808-11.72-10.566-.419-32.159-.214-50.14-26.561 5.253 15.253 5.751 31.741 1.428 47.283a73 73 0 0 1-14.5 27.48c-3.215 3.775-6.8 7.22-10.7 10.283-3.768 2.935-7.799 5.514-12.042 7.705a78.7 78.7 0 0 1-26.134 8.159c-9.051 1.162-18.238.669-27.112-1.457a69.2 69.2 0 0 1-45.54-35.1c-5.028-9.581-8.183-20.033-9.297-30.796zm12.972-1.608a81.16 81.16 0 0 0 6.71 26.022c3.586 8.217 8.484 15.797 14.5 22.444 5.988 6.668 13.351 11.956 21.582 15.5a51.73 51.73 0 0 0 26.055 3.633c8.961-1.114 17.49-4.496 24.779-9.827a67.56 67.56 0 0 0 18.151-20.4 92.31 92.31 0 0 0 10.179-25.415 95.11 95.11 0 0 0 2.462-27.375 84.78 84.78 0 0 0-5.9-27.219 64.91 64.91 0 0 0-15.43-22.892c-6.518-6.165-14.4-10.702-23.005-13.242a54.26 54.26 0 0 0-25.644-1.038c-16.858 3.405-31.783 13.95-41.763 28.5a75.35 75.35 0 0 0-10.7 24.411 83.48 83.48 0 0 0-1.977 26.898zM263.488 203.147a69.21 69.21 0 0 1 45.541-35.1 75.24 75.24 0 0 1 27.112-1.457 78.7 78.7 0 0 1 26.133 8.159 77.31 77.31 0 0 1 12.042 7.705c3.9 3.063 7.485 6.508 10.7 10.283a72.99 72.99 0 0 1 14.5 27.48 79.64 79.64 0 0 1-1.428 47.283c17.982-26.347 39.575-26.142 50.14-26.561-3.757-.879-16.47-4.281-24.807-11.72l-.11-.1a33.2 33.2 0 0 1-6.965-6.974c-2.494-3.354-4.42-7.095-5.7-11.074-1.264-3.933-1.795-8.066-1.566-12.191.242-4.251 1.266-8.42 3.02-12.3 1.848-3.759 4.435-7.107 7.606-9.843a35.76 35.76 0 0 1 10.514-6.264 49.92 49.92 0 0 1 9.172-2.685q4.7-.891 9.4-1.566a67.38 67.38 0 0 1 7.829-.447h26.017v-.077h14.012v156.819h-14.012v-2.5c-.052-.182-.08-.371-.081-.56v-53.579l.081-20.936v-74.455a4.4 4.4 0 0 0-.418-1.026c-.37-.67-1.23-1.007-2.572-1.007q-.445 0-3.579-.111l-1.991-.057c-.437 0-.919-.011-1.434-.029q-1.637-.025-3.4-.026-3.691 0-6.824-.112-1.966-.069-2.963-.1c-14.169.68-32.178 5.968-35.237 33.656l-.053 2.345a60.4 60.4 0 0 0 1.119 11.856c.1.53.227 1.031.35 1.539 2.291 6.463 6.813 11.897 12.752 15.324a70.99 70.99 0 0 0 5.45 2.784c10.008 4.263 20.664 4.727 23.8 4.766h.921v2.328h-7.514c-26.25 5.632-47.2 17.736-58.777 32.925 0 0-19.914 28.211-44.986 39.339-7.028 3.609-14.598 6.064-22.415 7.254-4.631.685-9.32.9-13.994.64a63.86 63.86 0 0 1-27.452-7.91 72 72 0 0 1-22.589-19.961c-6.404-8.535-11.146-18.197-13.98-28.484a87.51 87.51 0 0 1-2.673-32.485c1.119-10.761 4.279-21.21 9.309-30.788zm5.655 59.3a75.35 75.35 0 0 0 10.7 24.411c9.979 14.554 24.9 25.1 41.763 28.5a54.25 54.25 0 0 0 25.643-1.038c8.605-2.539 16.488-7.077 23.006-13.242a64.91 64.91 0 0 0 15.429-22.892 84.72 84.72 0 0 0 5.9-27.219 95.15 95.15 0 0 0-2.461-27.375c-2.111-8.931-5.542-17.496-10.18-25.415a67.56 67.56 0 0 0-18.151-20.4c-7.289-5.331-15.818-8.714-24.779-9.827-8.853-1.054-17.828.197-26.055 3.633a61.92 61.92 0 0 0-21.582 15.5 82.86 82.86 0 0 0-14.5 22.444 81.16 81.16 0 0 0-6.71 26.022 83.5 83.5 0 0 0 1.974 26.893zm217.726-142.698c-9.371 17.751-25.988 30.558-45.54 35.1a75.25 75.25 0 0 1-27.113 1.457 78.71 78.71 0 0 1-26.133-8.159 77.29 77.29 0 0 1-12.042-7.706 74.53 74.53 0 0 1-10.7-10.282 73 73 0 0 1-14.5-27.48c-4.323-15.542-3.825-32.03 1.428-47.283-17.981 26.347-39.574 26.142-50.14 26.561 3.758.879 16.47 4.28 24.808 11.72.038.033.071.067.109.1 2.655 1.965 5.003 4.316 6.965 6.974a38.13 38.13 0 0 1 5.7 11.073 33.75 33.75 0 0 1 1.577 12.193 34.67 34.67 0 0 1-3.02 12.3 31.15 31.15 0 0 1-7.607 9.843c-3.119 2.677-6.675 4.796-10.514 6.264-2.964 1.186-6.035 2.085-9.171 2.685q-4.7.891-9.4 1.566a67.28 67.28 0 0 1-7.829.446h-26.031v.078h-14.013V.384h14.012v2.493a2.13 2.13 0 0 1 .081.561v53.579l-.081 20.936v74.455c.095.358.235.703.417 1.026.37.67 1.23 1.007 2.572 1.007.3 0 1.489.034 3.579.111l1.991.057c.438 0 .919.011 1.435.029l3.4.026q3.691 0 6.824.112 1.966.069 2.963.1c14.169-.68 32.178-5.968 35.237-33.656l.053-2.345a60.5 60.5 0 0 0-1.118-11.857c-.1-.529-.228-1.03-.35-1.538a28.81 28.81 0 0 0-12.753-15.324q-2.684-1.524-5.449-2.785c-10.008-4.263-20.665-4.726-23.8-4.765h-.92v-2.329h7.513c26.251-5.631 47.2-17.735 58.778-32.924 0 0 19.913-28.211 44.985-39.339A73.21 73.21 0 0 1 415.487.76c4.631-.685 9.32-.9 13.994-.64a63.85 63.85 0 0 1 27.452 7.91 72 72 0 0 1 22.589 19.961 85.12 85.12 0 0 1 13.98 28.484 87.51 87.51 0 0 1 2.673 32.485c-1.117 10.761-4.276 21.211-9.306 30.789zm-5.655-59.294a75.37 75.37 0 0 0-10.7-24.411c-9.98-14.554-24.9-25.1-41.763-28.5a54.26 54.26 0 0 0-25.644 1.038 56.91 56.91 0 0 0-23.003 13.235 64.88 64.88 0 0 0-15.43 22.892 84.75 84.75 0 0 0-5.9 27.219 95.12 95.12 0 0 0 2.462 27.375c2.111 8.931 5.542 17.496 10.179 25.415 4.598 7.965 10.775 14.907 18.151 20.4 7.288 5.332 15.817 8.715 24.779 9.828a51.73 51.73 0 0 0 26.055-3.633 61.92 61.92 0 0 0 21.588-15.496 82.83 82.83 0 0 0 14.5-22.444 81.16 81.16 0 0 0 6.71-26.022 83.48 83.48 0 0 0-1.984-26.896zm-236.44 173.486c1.151 10.9.244 21.92-2.673 32.485-2.834 10.287-7.576 19.949-13.98 28.484a72 72 0 0 1-22.589 19.961 63.86 63.86 0 0 1-27.452 7.91 69.33 69.33 0 0 1-13.994-.64 72.83 72.83 0 0 1-22.415-7.269c-25.072-11.113-44.986-39.324-44.986-39.324-11.575-15.189-32.526-27.293-58.777-32.925h-7.515v-2.328h.92c3.135-.039 13.792-.5 23.8-4.766a70.79 70.79 0 0 0 5.449-2.784 28.8 28.8 0 0 0 12.752-15.324c.123-.508.254-1.009.351-1.539a60.48 60.48 0 0 0 1.118-11.856c0-.792-.026-1.569-.053-2.345-3.059-27.688-21.068-32.976-35.237-33.656q-1 .025-2.963.1-3.135.116-6.824.112l-3.4.026-1.435.029-1.991.057q-3.135.114-3.579.111c-1.342 0-2.2.337-2.572 1.007-.182.323-.322.668-.418 1.026v74.455l.082 20.936v53.579a2.08 2.08 0 0 1-.082.56v2.494H2.306V165.695h14.011v.077h26.032a67.38 67.38 0 0 1 7.829.447q4.7.671 9.4 1.566c3.136.6 6.207 1.499 9.171 2.685a35.76 35.76 0 0 1 10.514 6.264c3.172 2.736 5.759 6.084 7.607 9.843a34.68 34.68 0 0 1 3.02 12.3 33.76 33.76 0 0 1-1.567 12.191 38.12 38.12 0 0 1-5.7 11.074 33.2 33.2 0 0 1-6.965 6.974l-.109.1c-8.338 7.439-21.05 10.841-24.808 11.72 10.566.419 32.159.214 50.14 26.561a79.66 79.66 0 0 1-1.428-47.283c2.806-10.094 7.751-19.467 14.5-27.48a74.5 74.5 0 0 1 10.7-10.283c3.768-2.935 7.799-5.514 12.042-7.705a78.71 78.71 0 0 1 26.133-8.159c9.051-1.162 18.238-.669 27.112 1.457a69.21 69.21 0 0 1 45.541 35.1 85.16 85.16 0 0 1 9.293 30.797zm-12.972 1.608a81.16 81.16 0 0 0-6.71-26.022 82.83 82.83 0 0 0-14.5-22.444 61.92 61.92 0 0 0-21.582-15.5 51.73 51.73 0 0 0-26.055-3.633c-8.961 1.113-17.49 4.496-24.779 9.827a67.56 67.56 0 0 0-18.151 20.4 92.31 92.31 0 0 0-10.179 25.415 95.11 95.11 0 0 0-2.462 27.375c.452 9.336 2.446 18.533 5.9 27.219a64.9 64.9 0 0 0 15.43 22.892 56.92 56.92 0 0 0 23.005 13.242 54.26 54.26 0 0 0 25.644 1.038c16.858-3.405 31.783-13.95 41.763-28.5a75.38 75.38 0 0 0 10.7-24.411 83.48 83.48 0 0 0 1.975-26.898zM2.784 88.956a87.51 87.51 0 0 1 2.673-32.485 85.12 85.12 0 0 1 13.98-28.484A72 72 0 0 1 42.026 8.026 63.86 63.86 0 0 1 69.478.116c4.674-.26 9.363-.045 13.994.64a72.82 72.82 0 0 1 22.415 7.269c25.072 11.113 44.986 39.324 44.986 39.324 11.575 15.189 32.527 27.293 58.777 32.924h7.514v2.329h-.921c-3.135.039-13.792.5-23.8 4.765q-2.763 1.267-5.45 2.785c-5.939 3.427-10.461 8.861-12.752 15.324-.123.508-.254 1.009-.35 1.538a60.42 60.42 0 0 0-1.119 11.857c0 .792.026 1.569.053 2.345 3.059 27.688 21.068 32.976 35.237 33.656q1-.026 2.963-.1 3.136-.116 6.824-.112 1.764 0 3.4-.026c.515-.018 1-.029 1.434-.029l1.991-.057 3.579-.111c1.342 0 2.2-.337 2.572-1.007.182-.323.322-.668.418-1.026V77.949l-.081-20.936V3.434c.001-.19.029-.379.081-.561V.38h14.012v156.818h-14.012v-.078h-26.032a67.29 67.29 0 0 1-7.829-.446q-4.7-.672-9.4-1.566c-3.136-.6-6.208-1.499-9.172-2.685-3.839-1.468-7.395-3.587-10.514-6.264a31.14 31.14 0 0 1-7.606-9.843c-1.754-3.88-2.778-8.049-3.02-12.3a33.73 33.73 0 0 1 1.566-12.192 38.13 38.13 0 0 1 5.7-11.073c1.962-2.658 4.31-5.009 6.965-6.974.038-.034.072-.068.11-.1 8.337-7.44 21.05-10.841 24.807-11.72-10.565-.419-32.158-.214-50.14-26.561a79.64 79.64 0 0 1 1.428 47.283 72.98 72.98 0 0 1-14.5 27.48c-3.215 3.775-6.8 7.22-10.7 10.282a77.24 77.24 0 0 1-12.042 7.706 78.7 78.7 0 0 1-26.133 8.159c-9.051 1.162-18.238.669-27.112-1.457a69.2 69.2 0 0 1-45.541-35.1 85.16 85.16 0 0 1-9.294-30.793zm12.972-1.608a81.16 81.16 0 0 0 6.71 26.022 82.83 82.83 0 0 0 14.5 22.444 61.92 61.92 0 0 0 21.582 15.5c8.227 3.436 17.202 4.687 26.055 3.633 8.962-1.113 17.491-4.496 24.779-9.828 7.376-5.493 13.553-12.435 18.151-20.4 4.638-7.919 8.069-16.484 10.18-25.415 2.141-8.958 2.97-18.179 2.461-27.375a84.72 84.72 0 0 0-5.9-27.219 64.89 64.89 0 0 0-15.421-22.893c-6.518-6.166-14.401-10.703-23.006-13.242a54.25 54.25 0 0 0-25.643-1.038c-16.859 3.405-31.784 13.95-41.763 28.5a75.36 75.36 0 0 0-10.7 24.411 83.5 83.5 0 0 0-1.985 26.9zm245.42 429.189a69.2 69.2 0 0 1 45.541-35.1 75.24 75.24 0 0 1 27.112-1.457 78.7 78.7 0 0 1 26.134 8.159c4.243 2.191 8.274 4.771 12.041 7.706a74.53 74.53 0 0 1 10.7 10.282 73.02 73.02 0 0 1 14.5 27.48c4.323 15.542 3.825 32.03-1.428 47.283 17.981-26.347 39.574-26.142 50.139-26.561-3.757-.879-16.47-4.28-24.807-11.72-.038-.033-.072-.067-.109-.1a33.21 33.21 0 0 1-6.966-6.974c-2.494-3.354-4.419-7.095-5.7-11.073a33.73 33.73 0 0 1-1.566-12.192 34.67 34.67 0 0 1 3.02-12.3c1.848-3.759 4.435-7.107 7.606-9.843a35.77 35.77 0 0 1 10.514-6.264 49.93 49.93 0 0 1 9.172-2.685q4.7-.891 9.4-1.566a67.16 67.16 0 0 1 7.829-.446h26.032v-.078h14.012v156.818h-14.02v-2.493a2.12 2.12 0 0 1-.081-.561v-53.579l.081-20.936v-74.455a4.46 4.46 0 0 0-.417-1.026c-.37-.67-1.23-1.006-2.573-1.006-.3 0-1.489-.035-3.579-.112l-1.991-.057c-.437 0-.919-.011-1.434-.029q-1.637-.026-3.4-.026-3.691 0-6.823-.112-1.968-.069-2.963-.1c-14.17.68-32.179 5.968-35.238 33.656l-.053 2.345a60.42 60.42 0 0 0 1.119 11.857c.1.529.227 1.03.35 1.538 2.291 6.463 6.813 11.897 12.752 15.324q2.685 1.524 5.45 2.785c10.008 4.263 20.665 4.726 23.8 4.765h.921v2.329h-7.514c-26.25 5.631-47.2 17.735-58.777 32.924 0 0-19.914 28.211-44.986 39.339a73.19 73.19 0 0 1-22.414 7.254c-4.631.685-9.32.9-13.995.64a63.86 63.86 0 0 1-27.452-7.91 72.01 72.01 0 0 1-22.589-19.961 85.12 85.12 0 0 1-13.978-28.482 87.53 87.53 0 0 1-2.673-32.485c1.116-10.763 4.273-21.214 9.301-30.795zm5.655 59.294a75.36 75.36 0 0 0 10.7 24.411c9.979 14.554 24.9 25.1 41.763 28.5a54.26 54.26 0 0 0 25.644-1.038 56.92 56.92 0 0 0 23.005-13.242c6.725-6.436 11.988-14.243 15.43-22.892a84.78 84.78 0 0 0 5.9-27.219 95.12 95.12 0 0 0-2.462-27.375c-2.111-8.931-5.542-17.496-10.18-25.415a67.52 67.52 0 0 0-18.151-20.4c-7.288-5.332-15.817-8.715-24.779-9.828-8.853-1.054-17.828.197-26.055 3.633a61.93 61.93 0 0 0-21.582 15.5c-6.016 6.648-10.913 14.227-14.5 22.444a81.19 81.19 0 0 0-6.709 26.022c-.803 9.014-.135 18.099 1.978 26.899zm217.731-142.693a69.2 69.2 0 0 1-45.54 35.1c-8.874 2.126-18.061 2.619-27.112 1.457a78.7 78.7 0 0 1-26.134-8.159 77.36 77.36 0 0 1-12.042-7.705 74.54 74.54 0 0 1-10.7-10.283 73 73 0 0 1-14.5-27.48c-4.323-15.542-3.825-32.03 1.428-47.283-17.981 26.347-39.574 26.142-50.14 26.561 3.758.879 16.47 4.281 24.808 11.72l.109.1c2.656 1.966 5.003 4.316 6.966 6.974 2.493 3.354 4.419 7.096 5.7 11.074 1.264 3.933 1.795 8.066 1.566 12.191a34.67 34.67 0 0 1-3.02 12.3 31.15 31.15 0 0 1-7.607 9.843 35.76 35.76 0 0 1-10.507 6.268c-2.964 1.186-6.035 2.085-9.171 2.685q-4.7.891-9.4 1.566a67.25 67.25 0 0 1-7.829.447h-26.028v.077h-14.012V313.772h14.012v2.494c.052.182.079.371.081.56v53.579l-.081 20.936v74.455a4.4 4.4 0 0 0 .417 1.026c.37.671 1.23 1.007 2.573 1.007q.444 0 3.578.111l1.992.057c.437 0 .918.011 1.434.029q1.637.026 3.4.026 3.691 0 6.824.112 1.966.069 2.963.1c14.169-.679 32.179-5.968 35.237-33.656l.054-2.345a60.48 60.48 0 0 0-1.119-11.856c-.1-.53-.228-1.031-.35-1.539a28.81 28.81 0 0 0-12.753-15.324 70.79 70.79 0 0 0-5.449-2.784c-10.008-4.263-20.665-4.727-23.8-4.766h-.92v-2.328h7.514c26.25-5.632 47.2-17.736 58.777-32.925 0 0 19.913-28.211 44.985-39.339a73.2 73.2 0 0 1 22.414-7.254 69.35 69.35 0 0 1 13.994-.64 63.86 63.86 0 0 1 27.452 7.91 72 72 0 0 1 22.589 19.961 85.12 85.12 0 0 1 13.98 28.484 87.51 87.51 0 0 1 2.673 32.485c-1.118 10.761-4.276 21.211-9.306 30.79zm-5.655-59.295a75.36 75.36 0 0 0-10.7-24.411c-9.98-14.554-24.905-25.1-41.763-28.5a54.26 54.26 0 0 0-25.644 1.038c-8.605 2.54-16.487 7.077-23.005 13.242a64.91 64.91 0 0 0-15.43 22.892 84.78 84.78 0 0 0-5.9 27.219 95.11 95.11 0 0 0 2.462 27.375 92.31 92.31 0 0 0 10.179 25.415 67.56 67.56 0 0 0 18.151 20.4c7.289 5.331 15.818 8.713 24.779 9.827a51.74 51.74 0 0 0 26.056-3.633c8.231-3.544 15.594-8.832 21.581-15.5a82.81 82.81 0 0 0 14.5-22.444 81.16 81.16 0 0 0 6.71-26.022 83.45 83.45 0 0 0-1.976-26.898zM242.468 547.33a87.51 87.51 0 0 1-2.673 32.485 85.12 85.12 0 0 1-13.98 28.484 72 72 0 0 1-22.589 19.961 63.85 63.85 0 0 1-27.452 7.91 69.33 69.33 0 0 1-13.994-.64 72.82 72.82 0 0 1-22.414-7.269c-25.072-11.113-44.985-39.324-44.985-39.324-11.576-15.189-32.527-27.293-58.777-32.924H28.09v-2.329h.92c3.135-.039 13.792-.5 23.8-4.765q2.763-1.267 5.449-2.785a28.81 28.81 0 0 0 12.753-15.324c.122-.508.253-1.009.35-1.538a60.5 60.5 0 0 0 1.12-11.855c0-.792-.027-1.569-.054-2.345-3.059-27.688-21.068-32.976-35.237-33.656q-1 .026-2.963.1-3.135.115-6.824.112l-3.4.026-1.434.029-1.992.057-3.578.112c-1.343 0-2.2.336-2.573 1.006-.182.323-.322.668-.417 1.026v74.455l.081 20.936v53.579a2.13 2.13 0 0 1-.081.561v2.493H0V479.084h14.012v.078h26.031a67.25 67.25 0 0 1 7.829.446q4.7.672 9.4 1.566a49.94 49.94 0 0 1 9.171 2.685c3.839 1.468 7.395 3.587 10.514 6.264a31.15 31.15 0 0 1 7.607 9.843 34.67 34.67 0 0 1 3.02 12.3 33.74 33.74 0 0 1-1.566 12.192 38.18 38.18 0 0 1-5.7 11.073c-1.963 2.658-4.31 5.008-6.966 6.974-.038.034-.071.068-.109.1-8.338 7.44-21.05 10.841-24.808 11.72 10.566.419 32.159.214 50.14 26.561-5.253-15.253-5.751-31.741-1.428-47.283a73 73 0 0 1 14.5-27.48 74.48 74.48 0 0 1 10.7-10.282 77.3 77.3 0 0 1 12.042-7.706 78.7 78.7 0 0 1 26.134-8.159c9.051-1.162 18.238-.669 27.112 1.457a69.2 69.2 0 0 1 45.54 35.1 85.12 85.12 0 0 1 9.293 30.797zm-12.972 1.608a81.16 81.16 0 0 0-6.71-26.022 82.81 82.81 0 0 0-14.5-22.444 61.91 61.91 0 0 0-21.582-15.5 51.73 51.73 0 0 0-26.055-3.633c-8.962 1.113-17.491 4.496-24.779 9.828-7.376 5.493-13.553 12.435-18.151 20.4a92.31 92.31 0 0 0-10.179 25.415 95.11 95.11 0 0 0-2.462 27.375 84.78 84.78 0 0 0 5.9 27.219 64.89 64.89 0 0 0 15.43 22.892c6.516 6.165 14.397 10.702 23 13.242a54.26 54.26 0 0 0 25.644 1.038c16.858-3.405 31.783-13.95 41.763-28.5a75.35 75.35 0 0 0 10.7-24.411 83.47 83.47 0 0 0 1.981-26.899zM.482 402.344c-1.151-10.9-.244-21.92 2.673-32.485 2.833-10.287 7.576-19.95 13.98-28.484a72.01 72.01 0 0 1 22.589-19.961 63.87 63.87 0 0 1 27.452-7.91c4.675-.26 9.364-.045 13.995.64a72.81 72.81 0 0 1 22.414 7.269c25.072 11.113 44.986 39.324 44.986 39.324 11.575 15.189 32.527 27.293 58.777 32.925h7.514v2.328h-.921c-3.134.039-13.791.5-23.8 4.766a70.99 70.99 0 0 0-5.45 2.784c-5.939 3.427-10.461 8.861-12.752 15.324-.123.508-.254 1.009-.35 1.539-.763 3.905-1.137 7.877-1.119 11.856 0 .792.026 1.569.053 2.345 3.059 27.688 21.068 32.977 35.238 33.656q1-.026 2.963-.1 3.135-.115 6.823-.112 1.764 0 3.4-.026c.515-.018 1-.029 1.434-.029l1.991-.057q3.135-.114 3.579-.111c1.343 0 2.2-.336 2.573-1.007a4.44 4.44 0 0 0 .417-1.026v-74.455l-.081-20.936v-53.575c.002-.189.029-.378.081-.56v-2.494h14.012V470.59h-14.012v-.077h-26.032a67.26 67.26 0 0 1-7.829-.447q-4.7-.671-9.4-1.566a49.93 49.93 0 0 1-9.172-2.685 35.77 35.77 0 0 1-10.514-6.264 31.15 31.15 0 0 1-7.606-9.843c-1.754-3.88-2.778-8.049-3.02-12.3-.229-4.125.302-8.258 1.566-12.191 1.28-3.979 3.206-7.72 5.7-11.074 1.962-2.658 4.31-5.009 6.966-6.974l.109-.1c8.337-7.439 21.05-10.841 24.807-11.72-10.565-.419-32.158-.214-50.139-26.561 5.253 15.253 5.751 31.741 1.428 47.283a73.02 73.02 0 0 1-14.5 27.48 74.54 74.54 0 0 1-10.7 10.283 77.3 77.3 0 0 1-12.041 7.705 78.7 78.7 0 0 1-26.134 8.159 75.24 75.24 0 0 1-27.112-1.457 69.21 69.21 0 0 1-45.541-35.1 85.18 85.18 0 0 1-9.295-30.797zm12.973-1.608a81.19 81.19 0 0 0 6.709 26.022 82.86 82.86 0 0 0 14.5 22.444 61.93 61.93 0 0 0 21.582 15.5c8.227 3.436 17.202 4.687 26.055 3.633a53.05 53.05 0 0 0 24.779-9.827c7.376-5.493 13.553-12.435 18.151-20.4 4.638-7.919 8.069-16.484 10.18-25.415a95.11 95.11 0 0 0 2.462-27.375 84.78 84.78 0 0 0-5.9-27.219 64.92 64.92 0 0 0-15.43-22.892c-6.518-6.165-14.4-10.702-23.005-13.242a54.26 54.26 0 0 0-25.644-1.038c-16.858 3.405-31.784 13.95-41.763 28.5a75.36 75.36 0 0 0-10.7 24.411 83.48 83.48 0 0 0-1.98 26.898z"/></svg>