<svg xmlns="http://www.w3.org/2000/svg" width="207.051" height="91.995" viewBox="0 0 207.051 91.995">
  <g id="Grupo_1325" data-name="Grupo 1325" transform="translate(-84 -28)">
    <g id="Grupo_10" data-name="Grupo 10" transform="translate(-799.494 1190.343)">
      <g id="Grupo_1" data-name="Grupo 1" transform="translate(987.019 -1098.549)">
        <path id="Caminho_1" data-name="Caminho 1" d="M1645.927-692.519" transform="translate(-1645.927 692.519)" fill="#7b583f"/>
      </g>
      <g id="Grupo_6" data-name="Grupo 6" transform="translate(883.494 -1162.343)">
        <g id="Grupo_2" data-name="Grupo 2" transform="translate(56.408 0.064)">
          <path id="Caminho_2" data-name="Caminho 2" d="M1393.786-1146.632a28.461,28.461,0,0,0-8.055-9.416,28.653,28.653,0,0,0-10.474-4.864,30.611,30.611,0,0,0-11.031-.593,32.018,32.018,0,0,0-10.633,3.32,31.446,31.446,0,0,0-4.9,3.135,30.338,30.338,0,0,0-4.353,4.184,29.7,29.7,0,0,0-5.9,11.181,32.44,32.44,0,0,0-.894,13.021,32.254,32.254,0,0,0,1.475,6.217c-7.316-10.72-16.1-10.636-20.4-10.807,1.529-.358,6.7-1.742,10.093-4.768l.044-.041a13.533,13.533,0,0,0,2.834-2.838,15.527,15.527,0,0,0,2.321-4.506,13.73,13.73,0,0,0,.637-4.96,14.115,14.115,0,0,0-1.229-5.006,12.675,12.675,0,0,0-3.1-4,14.551,14.551,0,0,0-4.278-2.549,20.317,20.317,0,0,0-3.731-1.092q-1.912-.362-3.823-.637a27.4,27.4,0,0,0-3.185-.182h-10.592v-.031h-5.7v63.8h5.7v-1.014a.852.852,0,0,0,.033-.228v-21.8c0-2.805-.013-5.65-.033-8.518v-30.293a1.794,1.794,0,0,1,.17-.417c.15-.273.5-.41,1.047-.41q.181,0,1.456-.045c.262-.009.534-.017.81-.023.178,0,.374,0,.583-.012.444-.007.9-.011,1.382-.011q1.5,0,2.776-.045.8-.028,1.206-.04c5.765.277,13.092,2.428,14.337,13.693.011.316.022.632.022.954a24.587,24.587,0,0,1-.456,4.824c-.039.216-.092.419-.142.626a11.718,11.718,0,0,1-5.188,6.234c-.728.413-1.468.789-2.217,1.133a27.3,27.3,0,0,1-9.683,1.939h-.375v.947h3.057c10.68,2.291,19.2,7.216,23.914,13.4,0,0,8.1,11.478,18.3,16.006,0,0,0,0,0-.006a29.941,29.941,0,0,0,3.615,1.569,29.8,29.8,0,0,0,5.5,1.389,28.258,28.258,0,0,0,5.694.26,25.985,25.985,0,0,0,11.169-3.218,29.3,29.3,0,0,0,9.191-8.121,34.632,34.632,0,0,0,5.688-11.589,35.61,35.61,0,0,0,1.088-13.217A34.646,34.646,0,0,0,1393.786-1146.632Zm-2.3,24.125a30.654,30.654,0,0,1-4.353,9.932,27.493,27.493,0,0,1-16.991,11.6,22.076,22.076,0,0,1-10.434-.422,23.159,23.159,0,0,1-9.36-5.388,26.414,26.414,0,0,1-6.278-9.314,34.5,34.5,0,0,1-2.4-11.074,38.707,38.707,0,0,1,1-11.138,37.566,37.566,0,0,1,4.141-10.341,27.487,27.487,0,0,1,7.385-8.3,21.585,21.585,0,0,1,10.082-4,21.051,21.051,0,0,1,10.6,1.478,25.2,25.2,0,0,1,8.781,6.308,33.715,33.715,0,0,1,5.9,9.131,33.033,33.033,0,0,1,2.73,10.587A33.972,33.972,0,0,1,1391.486-1122.507Z" transform="translate(-1298.92 1161.87)" fill="#7b583f"/>
        </g>
        <g id="Grupo_3" data-name="Grupo 3" transform="translate(159.892 0)">
          <rect id="Retângulo_1" data-name="Retângulo 1" width="5.701" height="63.803" fill="#7b583f"/>
        </g>
        <g id="Grupo_4" data-name="Grupo 4" transform="translate(169.995 0.016)">
          <path id="Caminho_3" data-name="Caminho 3" d="M2172.483-1116.272a19.766,19.766,0,0,0-4.915-11.1,19.645,19.645,0,0,0-4.915-4.141q-2.823-1.683-5.733-3.14-3.369-1.547-6.6-3.368a43.75,43.75,0,0,1-6.144-4.187,21.436,21.436,0,0,1-2.23-2.184,10.525,10.525,0,0,1-1.684-2.549,8.919,8.919,0,0,1-.637-3.777,8.674,8.674,0,0,1,1-3.686,9.222,9.222,0,0,1,2.457-2.958,14.534,14.534,0,0,1,3.367-2,18.02,18.02,0,0,1,3.823-1.138,29.827,29.827,0,0,1,3.823-.455c.334-.025.668-.04,1-.049h.091q.493-.011.988,0h9.584v-1.213h-4.174c-.245,0-.486,0-.728.005h-.455c-.735,0-1.5-.006-2.445-.006-1.77,0-3.681.065-5.684.216a26.756,26.756,0,0,0-5.826,1.093,20.2,20.2,0,0,0-5.233,2.457,12.063,12.063,0,0,0-3.869,4.142,12.912,12.912,0,0,0-1.547,3.868,14.357,14.357,0,0,0-.319,4.1,13.562,13.562,0,0,0,.865,3.959,10.408,10.408,0,0,0,2.185,3.459,20.716,20.716,0,0,0,1.865,1.82q.956.819,1.957,1.638a40.488,40.488,0,0,0,5.461,3.5q2.819,1.5,5.734,2.867,2.366,1.092,4.915,2.5a25.689,25.689,0,0,1,4.642,3.276,18.983,18.983,0,0,1,3.55,4.233,12.094,12.094,0,0,1,1.729,5.279,15.736,15.736,0,0,1-.729,5.78,11.574,11.574,0,0,1-2.822,4.778,13.5,13.5,0,0,1-6.69,3.277,34.547,34.547,0,0,1-5.705.572v0h-.134c-.465.008-.935.009-1.409,0h-10.941v1.08h1.951l5.469-.009h2.321c.638,0,1.243-.007,1.85-.007a42.6,42.6,0,0,0,4.506-.227,21.9,21.9,0,0,0,4.255-.836c.729-.182,1.343-.423,2.071-.666a7.655,7.655,0,0,0,2.094-1.092,14.274,14.274,0,0,0,4.278-3.959,22.046,22.046,0,0,0,2.821-5.142A14.506,14.506,0,0,0,2172.483-1116.272Z" transform="translate(-2135.453 1162.224)" fill="#7b583f"/>
        </g>
        <g id="Grupo_5" data-name="Grupo 5">
          <path id="Caminho_4" data-name="Caminho 4" d="M883.494-1161.342v.166h6.866c.526,0,1.049-.011,1.573-.017h10.185c.254.011.515.019.764.033a3.6,3.6,0,0,1,2.594.956,5.39,5.39,0,0,1,1.138,2.139,4.643,4.643,0,0,1,.182,1.274v38.241h0v20.01h5.643v-57.887a15.532,15.532,0,0,1,.546-2.64,3.313,3.313,0,0,1,2.913-2.093h1.017l18.741-.033v-1.15h-52.16Z" transform="translate(-883.494 1162.343)" fill="#7b583f"/>
        </g>
      </g>
    </g>
    <g id="Grupo_1324" data-name="Grupo 1324" transform="translate(139 94.508)">
      <g id="Grupo_7" data-name="Grupo 7" transform="translate(0.502)">
        <path id="Caminho_5" data-name="Caminho 5" d="M1351.724-631.643a3.318,3.318,0,0,1,.555,1.883,3.253,3.253,0,0,1-.872,2.329,3.975,3.975,0,0,1-2.973.922h-4.242v-12.152h3.668a4.237,4.237,0,0,1,2.963.853,2.964,2.964,0,0,1,.9,2.26,3.282,3.282,0,0,1-.406,1.635,2.559,2.559,0,0,1-1.358,1.1A2.978,2.978,0,0,1,1351.724-631.643Zm-5.51-1.467h1.506a1.718,1.718,0,0,0,1.526-.664,3.047,3.047,0,0,0,.456-1.755,2.747,2.747,0,0,0-.5-1.774,1.812,1.812,0,0,0-1.487-.6h-1.506Zm4.043,3.35a3.186,3.186,0,0,0-.515-1.843,1.71,1.71,0,0,0-1.506-.753h-2.022v5.094h2.022Q1350.257-627.262,1350.257-629.76Z" transform="translate(-1344.191 643.26)" fill="#7b583f"/>
        <path id="Caminho_6" data-name="Caminho 6" d="M1486.015-627.521v1.011h-7.077v-12.152h6.72v1.011h-4.7v4.42h4.281v1.051h-4.281v4.658Z" transform="translate(-1460.641 643.26)" fill="#7b583f"/>
        <path id="Caminho_7" data-name="Caminho 7" d="M1603.009-630.137h-4.837l-1.15,3.628h-1.15l3.925-12.152h2.418l3.925,12.152h-1.962Zm-.317-.971-2.1-6.6-2.1,6.6Z" transform="translate(-1561.699 643.26)" fill="#7b583f"/>
        <path id="Caminho_8" data-name="Caminho 8" d="M1750.326-630.534a4.394,4.394,0,0,1-.644,2.488,3.6,3.6,0,0,1-1.626,1.368,5.367,5.367,0,0,1-2.071.406,5.255,5.255,0,0,1-3.261-.981,3.853,3.853,0,0,1-1.3-3.281v-8.127h2.022v8.127a3.585,3.585,0,0,0,.724,2.488,2.529,2.529,0,0,0,1.952.783,3.081,3.081,0,0,0,2.151-.8,3.178,3.178,0,0,0,.882-2.468v-8.127h1.169Z" transform="translate(-1687.488 643.26)" fill="#7b583f"/>
        <path id="Caminho_9" data-name="Caminho 9" d="M1883.78-638.661v1.011h-3.212v11.14h-2.021v-11.14H1875.3v-1.011Z" transform="translate(-1803.181 643.26)" fill="#7b583f"/>
        <path id="Caminho_10" data-name="Caminho 10" d="M2015.078-656.791v1.011H2008v-12.152h6.72v1.011h-4.7v4.42h4.281v1.051h-4.281v4.658Zm-2.517-15.739,1.229,1.427-3.251,2.161-.416-.456Z" transform="translate(-1917.868 672.53)" fill="#7b583f"/>
      </g>
      <g id="Grupo_8" data-name="Grupo 8" transform="translate(0 21.199)">
        <path id="Caminho_11" data-name="Caminho 11" d="M1343.456-514.461a1.167,1.167,0,0,1-.378.908,1.421,1.421,0,0,1-.99.342.6.6,0,0,1-.267-.05.166.166,0,0,1-.087-.137.037.037,0,0,1,0-.014.039.039,0,0,1,.009-.014.018.018,0,0,1,.019,0,1,1,0,0,0,.236.044.843.843,0,0,0,.634-.258.983.983,0,0,0,.249-.712,1.044,1.044,0,0,0-.261-.75,1,1,0,0,0-.764-.275c-.189,0-.292.021-.311.062a1.865,1.865,0,0,0-.031.466v2.648a2.023,2.023,0,0,0,.031.46c.008.029.066.053.174.072a1.607,1.607,0,0,0,.255.028.168.168,0,0,1,.02.09.136.136,0,0,1-.02.09q-.638-.031-.728-.031t-.733.031a.134.134,0,0,1-.02-.09.166.166,0,0,1,.02-.09,1.6,1.6,0,0,0,.255-.028c.108-.019.166-.043.174-.072a2.015,2.015,0,0,0,.031-.46v-2.655a2.014,2.014,0,0,0-.031-.46c-.008-.029-.066-.053-.174-.072a1.6,1.6,0,0,0-.255-.028.166.166,0,0,1-.02-.09.134.134,0,0,1,.02-.09q.637.031.733.031t.395-.006q.289-.006.488-.006a1.6,1.6,0,0,1,.636.126,1.18,1.18,0,0,1,.492.387A.982.982,0,0,1,1343.456-514.461Z" transform="translate(-1340.495 515.708)" fill="#7b583f"/>
        <path id="Caminho_12" data-name="Caminho 12" d="M1382-515.828a1.966,1.966,0,0,1,.777.157,2.04,2.04,0,0,1,.647.43,1.992,1.992,0,0,1,.44.67,2.2,2.2,0,0,1,.163.85,2.088,2.088,0,0,1-.163.816,2.117,2.117,0,0,1-.438.671,2.1,2.1,0,0,1-.648.448,1.9,1.9,0,0,1-.777.166,1.952,1.952,0,0,1-.775-.157,2,2,0,0,1-.642-.43,2.005,2.005,0,0,1-.435-.668,2.206,2.206,0,0,1-.162-.846,2.115,2.115,0,0,1,.162-.819,2.127,2.127,0,0,1,.433-.671,2.068,2.068,0,0,1,.644-.449A1.859,1.859,0,0,1,1382-515.828Zm-.093.211a1.147,1.147,0,0,0-.493.1,1.1,1.1,0,0,0-.37.275,1.614,1.614,0,0,0-.25.4,2.055,2.055,0,0,0-.147.476,2.766,2.766,0,0,0-.046.5,2.646,2.646,0,0,0,.1.724,2.47,2.47,0,0,0,.284.65,1.458,1.458,0,0,0,.474.473,1.185,1.185,0,0,0,.639.18,1.159,1.159,0,0,0,.494-.1,1.082,1.082,0,0,0,.372-.277,1.654,1.654,0,0,0,.251-.4,2.025,2.025,0,0,0,.149-.48,2.839,2.839,0,0,0,.045-.507,2.592,2.592,0,0,0-.1-.723,2.454,2.454,0,0,0-.287-.645,1.482,1.482,0,0,0-.476-.468A1.2,1.2,0,0,0,1381.907-515.617Z" transform="translate(-1374.624 515.906)" fill="#7b583f"/>
        <path id="Caminho_13" data-name="Caminho 13" d="M1429.192-515.58a1.417,1.417,0,0,1,.437.07,1.507,1.507,0,0,1,.407.2.989.989,0,0,1,.3.341.936.936,0,0,1,.117.464.931.931,0,0,1-.26.617,1.361,1.361,0,0,1-.589.409,16.327,16.327,0,0,0,1,1.461.968.968,0,0,0,.3.269,1.007,1.007,0,0,0,.405.1.165.165,0,0,1,.011.1.311.311,0,0,1-.017.083,2.942,2.942,0,0,1-.82-.075.9.9,0,0,1-.3-.168.816.816,0,0,1-.1-.106q-.081-.109-.4-.581t-.589-.892a.209.209,0,0,0-.187-.075h-.329v1.156a2,2,0,0,0,.031.46c.008.029.066.053.174.072a1.607,1.607,0,0,0,.255.028.164.164,0,0,1,.02.09.133.133,0,0,1-.02.09q-.637-.031-.728-.031t-.734.031a.133.133,0,0,1-.02-.09.164.164,0,0,1,.02-.09,1.609,1.609,0,0,0,.255-.028c.108-.019.166-.043.174-.072a2.416,2.416,0,0,0,.031-.46l0-2.655a1.991,1.991,0,0,0-.031-.46c-.008-.029-.066-.053-.174-.072a1.6,1.6,0,0,0-.255-.028.166.166,0,0,1-.021-.09.134.134,0,0,1,.021-.09q.637.031.733.031c.071,0,.2,0,.4-.006S1429.059-515.58,1429.192-515.58Zm.684,1.131a.962.962,0,0,0-.232-.682.943.943,0,0,0-.725-.25c-.189,0-.292.021-.311.062a1.865,1.865,0,0,0-.031.466l0,1.3h.333a1,1,0,0,0,.673-.25A.812.812,0,0,0,1429.875-514.449Z" transform="translate(-1415.733 515.708)" fill="#7b583f"/>
        <path id="Caminho_14" data-name="Caminho 14" d="M1499.534-515.574a2.612,2.612,0,0,1,.914.154,1.959,1.959,0,0,1,.69.423,1.869,1.869,0,0,1,.428.639,2.1,2.1,0,0,1,.151.8,2.859,2.859,0,0,1-.065.625,1.93,1.93,0,0,1-.228.567,1.676,1.676,0,0,1-.414.471,1.931,1.931,0,0,1-.648.314,3.2,3.2,0,0,1-.908.118H1497.9a.133.133,0,0,1-.02-.09.165.165,0,0,1,.02-.09,1.61,1.61,0,0,0,.255-.028c.108-.019.165-.043.174-.072a2.033,2.033,0,0,0,.031-.46v-2.655a2.031,2.031,0,0,0-.031-.46c-.009-.029-.066-.053-.174-.072a1.6,1.6,0,0,0-.255-.028.165.165,0,0,1-.02-.09.133.133,0,0,1,.02-.09q.638.031.734.031l.44,0Zm-.628.727v2.648a1.274,1.274,0,0,0,.037.448q.062.087.51.087a1.806,1.806,0,0,0,.631-.107,1.546,1.546,0,0,0,.522-.319,1.442,1.442,0,0,0,.362-.555,2.177,2.177,0,0,0,.132-.785,2.7,2.7,0,0,0-.094-.742,1.746,1.746,0,0,0-.257-.552,1.53,1.53,0,0,0-.385-.37,1.606,1.606,0,0,0-.473-.216,2.021,2.021,0,0,0-.525-.067q-.407,0-.429.068A1.742,1.742,0,0,0,1498.906-514.847Z" transform="translate(-1476.509 515.708)" fill="#7b583f"/>
        <path id="Caminho_15" data-name="Caminho 15" d="M1541.594-512.387q.82-2.111,1.2-3.077a.422.422,0,0,1,.11-.114.259.259,0,0,1,.126-.067.036.036,0,0,1,.021.008l.017.01,1.265,3.32.159.41a.31.31,0,0,0,.194.154.729.729,0,0,0,.228.058.171.171,0,0,1,.019.092.441.441,0,0,1-.006.089q-.621-.031-.684-.031c-.085,0-.164,0-.238,0l-.247.014c-.091.006-.17.01-.236.013a.136.136,0,0,1-.021-.09.135.135,0,0,1,.027-.09,1.085,1.085,0,0,0,.191-.023.359.359,0,0,0,.157-.058.123.123,0,0,0,.025-.087,1.653,1.653,0,0,0-.106-.387q-.106-.3-.211-.564l-.106-.261a.05.05,0,0,0-.037-.025q-.081-.006-.616-.006-.392,0-.672.019l-.031.019q-.174.46-.28.758a1.4,1.4,0,0,0-.087.441.107.107,0,0,0,.058.09.408.408,0,0,0,.139.055c.055.011.1.019.142.023s.069.006.09.006a.163.163,0,0,1,.017.083.277.277,0,0,1,0,.1c-.06,0-.125-.006-.2-.013s-.136-.011-.2-.014-.13,0-.211,0-.16,0-.225,0-.137.008-.216.014-.153.01-.224.013a.147.147,0,0,1-.013-.081.288.288,0,0,1,.013-.1.858.858,0,0,0,.205-.033.305.305,0,0,0,.168-.085A2.581,2.581,0,0,0,1541.594-512.387Zm1.219-2.505-.572,1.517c0,.016,0,.025.012.025q.323.012.566.012t.522-.019a.019.019,0,0,0,.012-.006.052.052,0,0,0,.006-.019v-.006Z" transform="translate(-1513.702 515.748)" fill="#7b583f"/>
        <path id="Caminho_16" data-name="Caminho 16" d="M1586.694-515.706q.3,0,.473-.012.155.242,1.119,1.416t1.318,1.668v-2.356c0-.129,0-.221-.009-.277a.354.354,0,0,0-.053-.152c-.016-.029-.084-.057-.2-.084a1.339,1.339,0,0,0-.269-.04.169.169,0,0,1-.023-.093.2.2,0,0,1,.01-.087q.622.031.715.031c.085,0,.16,0,.226,0s.137-.008.216-.014.153-.01.224-.012a.186.186,0,0,1,0,.18,1.537,1.537,0,0,0-.272.037q-.185.037-.213.087a.372.372,0,0,0-.052.149,2.453,2.453,0,0,0-.011.274v2.53q0,.535.012.858c0,.025-.031.037-.081.037a.234.234,0,0,1-.1-.034.369.369,0,0,1-.12-.109l-2.71-3.426v2.823q0,.192.009.277a.356.356,0,0,0,.053.152c.016.029.083.057.2.084a1.283,1.283,0,0,0,.266.04.168.168,0,0,1,.023.093.192.192,0,0,1-.011.087q-.621-.031-.709-.031c-.085,0-.16,0-.226,0s-.137.008-.216.014-.153.01-.224.013a.185.185,0,0,1,0-.18,1.539,1.539,0,0,0,.272-.037q.185-.037.213-.087a.371.371,0,0,0,.052-.149,2.453,2.453,0,0,0,.011-.273v-2.7a2.448,2.448,0,0,0-.011-.273.37.37,0,0,0-.052-.149c-.019-.033-.09-.062-.213-.087a1.537,1.537,0,0,0-.272-.037.185.185,0,0,1,0-.18q.1,0,.308.017C1586.507-515.71,1586.616-515.706,1586.694-515.706Z" transform="translate(-1552.696 515.828)" fill="#7b583f"/>
        <path id="Caminho_17" data-name="Caminho 17" d="M1636.617-515.568q.09,0,.728-.031a.134.134,0,0,1,.02.09.164.164,0,0,1-.02.09,1.6,1.6,0,0,0-.255.028q-.162.028-.174.072a2.018,2.018,0,0,0-.031.46v2.655a2.02,2.02,0,0,0,.031.46q.012.043.174.072a1.607,1.607,0,0,0,.255.028.164.164,0,0,1,.02.09.134.134,0,0,1-.02.09q-.638-.031-.728-.031c-.065,0-.309.01-.734.031a.133.133,0,0,1-.02-.09.162.162,0,0,1,.02-.09,1.61,1.61,0,0,0,.255-.028c.108-.019.166-.043.174-.072a2.023,2.023,0,0,0,.031-.46v-2.655a2.021,2.021,0,0,0-.031-.46c-.008-.029-.066-.053-.174-.072a1.6,1.6,0,0,0-.255-.028.162.162,0,0,1-.02-.09.133.133,0,0,1,.02-.09C1636.309-515.578,1636.553-515.568,1636.617-515.568Z" transform="translate(-1595.757 515.708)" fill="#7b583f"/>
        <path id="Caminho_18" data-name="Caminho 18" d="M1665.782-512.2a1.216,1.216,0,0,0,.037.448.274.274,0,0,0,.138.053q.083.009.3.009h.354a2.026,2.026,0,0,0,.4-.042.889.889,0,0,0,.326-.126,1.117,1.117,0,0,0,.392-.628c.006-.025.035-.037.087-.037a.229.229,0,0,1,.156.037q-.028.081-.093.258t-.1.287c-.026.074-.052.157-.081.25a2,2,0,0,0-.057.236q-.32,0-1-.012t-1.116-.012c-.1,0-.231,0-.389.009s-.274.009-.351.009a.133.133,0,0,1-.02-.09.163.163,0,0,1,.02-.09,1.613,1.613,0,0,0,.255-.028c.108-.019.166-.043.174-.072a2,2,0,0,0,.031-.46v-2.655a2,2,0,0,0-.031-.46c-.008-.029-.066-.053-.174-.072a1.607,1.607,0,0,0-.255-.028.163.163,0,0,1-.02-.09.133.133,0,0,1,.02-.09q.638.031.734.031t.727-.031a.133.133,0,0,1,.02.09.161.161,0,0,1-.02.09,1.6,1.6,0,0,0-.255.028c-.108.019-.166.043-.174.072a1.727,1.727,0,0,0-.031.46Z" transform="translate(-1620.731 515.708)" fill="#7b583f"/>
        <path id="Caminho_19" data-name="Caminho 19" d="M1706.974-515.828a1.965,1.965,0,0,1,.777.157,2.042,2.042,0,0,1,.647.43,1.991,1.991,0,0,1,.439.67,2.2,2.2,0,0,1,.163.85,2.09,2.09,0,0,1-.163.816,2.12,2.12,0,0,1-.438.671,2.1,2.1,0,0,1-.648.448,1.894,1.894,0,0,1-.777.166,1.953,1.953,0,0,1-.776-.157,2.006,2.006,0,0,1-.642-.43,2.005,2.005,0,0,1-.435-.668,2.211,2.211,0,0,1-.161-.846,2.12,2.12,0,0,1,.161-.819,2.127,2.127,0,0,1,.434-.671,2.068,2.068,0,0,1,.644-.449A1.86,1.86,0,0,1,1706.974-515.828Zm-.093.211a1.149,1.149,0,0,0-.493.1,1.092,1.092,0,0,0-.369.275,1.621,1.621,0,0,0-.25.4,2.073,2.073,0,0,0-.148.476,2.788,2.788,0,0,0-.045.5,2.632,2.632,0,0,0,.1.724,2.469,2.469,0,0,0,.284.65,1.46,1.46,0,0,0,.474.473,1.184,1.184,0,0,0,.638.18,1.161,1.161,0,0,0,.494-.1,1.08,1.08,0,0,0,.372-.277,1.654,1.654,0,0,0,.251-.4,2.065,2.065,0,0,0,.149-.48,2.839,2.839,0,0,0,.045-.507,2.6,2.6,0,0,0-.1-.723,2.454,2.454,0,0,0-.287-.645,1.482,1.482,0,0,0-.476-.468A1.2,1.2,0,0,0,1706.881-515.617Z" transform="translate(-1655.472 515.906)" fill="#7b583f"/>
        <path id="Caminho_20" data-name="Caminho 20" d="M1781.521-515.568q.09,0,.727-.031a.15.15,0,0,1,.02.1.187.187,0,0,1-.02.1,1.568,1.568,0,0,0-.255.028c-.108.019-.166.043-.174.071a2,2,0,0,0-.031.46v1.088l.013.019.976.019q.112,0,.951-.019a.035.035,0,0,0,.012-.025v-1.082a2.023,2.023,0,0,0-.031-.46c-.009-.029-.066-.053-.174-.071a1.573,1.573,0,0,0-.255-.028.185.185,0,0,1-.02-.1.152.152,0,0,1,.02-.1q.638.031.734.031t.727-.031a.152.152,0,0,1,.02.1.187.187,0,0,1-.02.1,1.57,1.57,0,0,0-.255.028c-.108.019-.166.043-.174.071a2.008,2.008,0,0,0-.031.46v2.617a2.006,2.006,0,0,0,.031.46c.008.029.066.053.174.071a1.57,1.57,0,0,0,.255.028.187.187,0,0,1,.02.1.152.152,0,0,1-.02.1q-.637-.031-.727-.031t-.734.031a.152.152,0,0,1-.02-.1.185.185,0,0,1,.02-.1,1.573,1.573,0,0,0,.255-.028c.108-.019.166-.043.174-.071a2.021,2.021,0,0,0,.031-.46v-1.231l-.012-.025-.422-.014q-.346-.011-.53-.011a5.769,5.769,0,0,0-.982.037l-.007.013v1.231a2,2,0,0,0,.031.46c.008.029.066.053.174.071a1.568,1.568,0,0,0,.255.028.186.186,0,0,1,.02.1.15.15,0,0,1-.02.1q-.637-.031-.727-.031t-.734.031a.154.154,0,0,1-.02-.1.187.187,0,0,1,.02-.1,1.57,1.57,0,0,0,.255-.028c.108-.019.166-.043.174-.071a2.016,2.016,0,0,0,.031-.46v-2.617a2.018,2.018,0,0,0-.031-.46c-.008-.029-.066-.053-.174-.071a1.57,1.57,0,0,0-.255-.028.187.187,0,0,1-.02-.1.154.154,0,0,1,.02-.1Q1781.425-515.568,1781.521-515.568Z" transform="translate(-1720.986 515.708)" fill="#7b583f"/>
        <path id="Caminho_21" data-name="Caminho 21" d="M1828.83-515.648c.186,0,.509-.007.965-.022s.8-.022,1.037-.022q.025.18.095.476t.085.37a.157.157,0,0,1-.112.031c-.052,0-.081-.015-.087-.044a.816.816,0,0,0-.269-.465.78.78,0,0,0-.453-.12h-.534q-.408,0-.429.068a1.621,1.621,0,0,0-.031.441v1.163c0,.015.022.024.072.029a1.943,1.943,0,0,0,.2.008h.329c.1,0,.184,0,.242,0a1.024,1.024,0,0,0,.163-.019.29.29,0,0,0,.11-.04.277.277,0,0,0,.065-.07.339.339,0,0,0,.048-.107c.012-.041.026-.093.042-.156a.337.337,0,0,1,.013-.053c.006-.029.037-.043.093-.043a.145.145,0,0,1,.106.031v1.175a.144.144,0,0,1-.1.025c-.053,0-.087-.016-.1-.05a2.464,2.464,0,0,0-.1-.312.234.234,0,0,0-.077-.1,2.155,2.155,0,0,0-.659-.05h-.1l-.1,0c-.041,0-.075,0-.1,0l-.078.009a.163.163,0,0,0-.059.017c-.012.007-.019.015-.019.023v1.181c0,.072,0,.159,0,.258a.336.336,0,0,0,.032.171.273.273,0,0,0,.138.053c.055.006.156.009.3.009h.3a2.144,2.144,0,0,0,.44-.045,1.084,1.084,0,0,0,.343-.123.594.594,0,0,0,.214-.226,3.04,3.04,0,0,0,.177-.4c.006-.025.035-.037.087-.037a.229.229,0,0,1,.156.037q-.028.081-.093.258t-.1.287q-.039.111-.081.25a1.957,1.957,0,0,0-.058.236q-.32,0-1-.012t-1.116-.012c-.1,0-.231,0-.389.009s-.274.009-.351.009a.133.133,0,0,1-.02-.09.161.161,0,0,1,.02-.09,1.6,1.6,0,0,0,.255-.028c.108-.019.166-.043.174-.072a2.008,2.008,0,0,0,.031-.46v-2.655a2.007,2.007,0,0,0-.031-.46c-.009-.029-.066-.053-.174-.072a1.6,1.6,0,0,0-.255-.028.162.162,0,0,1-.02-.09.133.133,0,0,1,.02-.09Q1828.734-515.647,1828.83-515.648Z" transform="translate(-1761.871 515.788)" fill="#7b583f"/>
        <path id="Caminho_22" data-name="Caminho 22" d="M1870.627-515.58a1.419,1.419,0,0,1,.437.07,1.5,1.5,0,0,1,.406.2.984.984,0,0,1,.3.341.937.937,0,0,1,.117.464.932.932,0,0,1-.26.617,1.363,1.363,0,0,1-.589.409,16.4,16.4,0,0,0,1,1.461.968.968,0,0,0,.3.269,1.008,1.008,0,0,0,.406.1.166.166,0,0,1,.011.1.311.311,0,0,1-.017.083,2.94,2.94,0,0,1-.821-.075.9.9,0,0,1-.3-.168.816.816,0,0,1-.1-.106q-.081-.109-.4-.581t-.589-.892a.209.209,0,0,0-.187-.075h-.33v1.156a1.983,1.983,0,0,0,.031.46c.008.029.066.053.174.072a1.607,1.607,0,0,0,.255.028.161.161,0,0,1,.02.09.133.133,0,0,1-.02.09q-.637-.031-.727-.031t-.734.031a.131.131,0,0,1-.02-.09.163.163,0,0,1,.02-.09,1.607,1.607,0,0,0,.255-.028c.108-.019.166-.043.174-.072a2.4,2.4,0,0,0,.031-.46l0-2.655a2.021,2.021,0,0,0-.031-.46q-.012-.043-.174-.072a1.6,1.6,0,0,0-.255-.028.167.167,0,0,1-.021-.09.134.134,0,0,1,.021-.09q.638.031.734.031t.395-.006Q1870.427-515.58,1870.627-515.58Zm.684,1.131a.963.963,0,0,0-.232-.682.944.944,0,0,0-.726-.25c-.188,0-.292.021-.311.062a1.884,1.884,0,0,0-.031.466l0,1.3h.333a1,1,0,0,0,.673-.25A.812.812,0,0,0,1871.31-514.449Z" transform="translate(-1797.229 515.708)" fill="#7b583f"/>
        <path id="Caminho_23" data-name="Caminho 23" d="M1913.151-515.58a2.114,2.114,0,0,1,.348.028,1.629,1.629,0,0,1,.336.095,1.071,1.071,0,0,1,.291.17.762.762,0,0,1,.2.266.863.863,0,0,1,.076.369.867.867,0,0,1-.21.572,1.047,1.047,0,0,1-.418.33c-.019.008-.019.019,0,.031a.744.744,0,0,1,.273.078,1.344,1.344,0,0,1,.3.194,1.028,1.028,0,0,1,.244.317.894.894,0,0,1,.1.412,1.142,1.142,0,0,1-.419.92,2.1,2.1,0,0,1-1.3.336h-1.43a.134.134,0,0,1-.02-.09.166.166,0,0,1,.02-.09,1.6,1.6,0,0,0,.255-.028q.161-.028.174-.072a2.038,2.038,0,0,0,.031-.46v-2.655a2.036,2.036,0,0,0-.031-.46q-.013-.043-.174-.072a1.6,1.6,0,0,0-.255-.028.166.166,0,0,1-.02-.09.134.134,0,0,1,.02-.09q.638.031.734.031c.071,0,.2,0,.395-.006S1913.019-515.58,1913.151-515.58Zm-.615,1.8h.519a.753.753,0,0,0,.584-.214.735.735,0,0,0,.2-.513.81.81,0,0,0-.26-.64,1.014,1.014,0,0,0-.7-.23c-.189,0-.292.021-.311.062a1.6,1.6,0,0,0-.031.466Zm0,.236v1.349a1.868,1.868,0,0,0,.012.242.383.383,0,0,0,.044.18.323.323,0,0,0,.179.09,1.727,1.727,0,0,0,.312.022q.989,0,.989-.914,0-.97-1.156-.97Z" transform="translate(-1833.98 515.708)" fill="#7b583f"/>
        <path id="Caminho_24" data-name="Caminho 24" d="M1953.35-515.648q.279,0,.965-.022t1.037-.022c.016.12.048.279.094.476s.075.32.086.37a.156.156,0,0,1-.112.031c-.052,0-.081-.015-.087-.044a.815.815,0,0,0-.269-.465.779.779,0,0,0-.452-.12h-.535q-.407,0-.429.068a1.634,1.634,0,0,0-.031.441v1.163c0,.015.022.024.072.029a1.936,1.936,0,0,0,.2.008h.329q.155,0,.242,0a1.021,1.021,0,0,0,.163-.019.293.293,0,0,0,.11-.04.286.286,0,0,0,.065-.07.339.339,0,0,0,.048-.107c.011-.041.026-.093.042-.156a.424.424,0,0,1,.012-.053c.006-.029.038-.043.094-.043a.145.145,0,0,1,.106.031v1.175a.144.144,0,0,1-.1.025c-.054,0-.087-.016-.1-.05a2.437,2.437,0,0,0-.1-.312.237.237,0,0,0-.078-.1,2.151,2.151,0,0,0-.659-.05h-.1l-.1,0c-.042,0-.075,0-.1,0l-.078.009a.162.162,0,0,0-.059.017c-.012.007-.019.015-.019.023v1.181c0,.072,0,.159,0,.258a.334.334,0,0,0,.032.171.273.273,0,0,0,.138.053q.083.009.3.009h.3a2.14,2.14,0,0,0,.44-.045,1.08,1.08,0,0,0,.343-.123.591.591,0,0,0,.214-.226,3.036,3.036,0,0,0,.177-.4c.006-.025.035-.037.087-.037a.228.228,0,0,1,.155.037q-.028.081-.093.258t-.1.287c-.026.074-.052.157-.081.25a1.9,1.9,0,0,0-.057.236q-.32,0-1-.012t-1.116-.012c-.1,0-.231,0-.388.009s-.275.009-.351.009a.133.133,0,0,1-.02-.09.161.161,0,0,1,.02-.09,1.6,1.6,0,0,0,.255-.028c.108-.019.166-.043.174-.072a2.028,2.028,0,0,0,.031-.46v-2.655a2.028,2.028,0,0,0-.031-.46c-.009-.029-.066-.053-.174-.072a1.6,1.6,0,0,0-.255-.028.161.161,0,0,1-.02-.09.132.132,0,0,1,.02-.09Q1953.253-515.647,1953.35-515.648Z" transform="translate(-1869.483 515.788)" fill="#7b583f"/>
        <path id="Caminho_25" data-name="Caminho 25" d="M1995.149-515.58a1.418,1.418,0,0,1,.437.07,1.51,1.51,0,0,1,.407.2.985.985,0,0,1,.3.341.931.931,0,0,1,.117.464.931.931,0,0,1-.26.617,1.363,1.363,0,0,1-.589.409,16.308,16.308,0,0,0,1,1.461.965.965,0,0,0,.3.269,1.008,1.008,0,0,0,.406.1.168.168,0,0,1,.011.1.322.322,0,0,1-.017.083,2.944,2.944,0,0,1-.821-.075.9.9,0,0,1-.3-.168.815.815,0,0,1-.1-.106q-.081-.109-.4-.581t-.589-.892a.208.208,0,0,0-.187-.075h-.33v1.156a2.023,2.023,0,0,0,.031.46c.009.029.066.053.174.072a1.61,1.61,0,0,0,.255.028.159.159,0,0,1,.02.09.13.13,0,0,1-.02.09q-.637-.031-.727-.031t-.734.031a.13.13,0,0,1-.02-.09.158.158,0,0,1,.02-.09,1.6,1.6,0,0,0,.255-.028c.108-.019.166-.043.174-.072a2.4,2.4,0,0,0,.031-.46l0-2.655a2.021,2.021,0,0,0-.031-.46c-.009-.029-.066-.053-.174-.072a1.6,1.6,0,0,0-.255-.028.165.165,0,0,1-.021-.09.134.134,0,0,1,.021-.09q.638.031.734.031t.395-.006Q1994.95-515.58,1995.149-515.58Zm.684,1.131a.964.964,0,0,0-.232-.682.944.944,0,0,0-.726-.25c-.189,0-.292.021-.311.062a1.852,1.852,0,0,0-.031.466l0,1.3h.333a1,1,0,0,0,.673-.25A.811.811,0,0,0,1995.833-514.449Z" transform="translate(-1904.844 515.708)" fill="#7b583f"/>
        <path id="Caminho_26" data-name="Caminho 26" d="M2036.684-516.289a.817.817,0,0,0,.193-.031.876.876,0,0,0,.18-.062.125.125,0,0,1,.118-.012q.074.649.162,1.069a.143.143,0,0,1-.118.044.1.1,0,0,1-.087-.031,1.361,1.361,0,0,0-.221-.552.453.453,0,0,0-.376-.207h-.79v3.171a2.022,2.022,0,0,0,.031.46c.009.029.066.053.174.072a1.6,1.6,0,0,0,.255.028.163.163,0,0,1,.021.09.134.134,0,0,1-.021.09q-.637-.031-.727-.031t-.733.031a.131.131,0,0,1-.021-.09.163.163,0,0,1,.021-.09,1.6,1.6,0,0,0,.255-.028c.108-.019.166-.043.174-.072a2.022,2.022,0,0,0,.031-.46v-3.171h-.8a.454.454,0,0,0-.376.207,1.375,1.375,0,0,0-.221.552.1.1,0,0,1-.087.031.142.142,0,0,1-.118-.044q.087-.42.162-1.069a.17.17,0,0,1,.143.019.782.782,0,0,0,.168.059.746.746,0,0,0,.18.028Z" transform="translate(-1939.488 516.405)" fill="#7b583f"/>
      </g>
    </g>
  </g>
</svg>
